<?xml version="1.0" encoding="UTF-8" standalone="no"?>
<svg
   height="16"
   viewBox="0 -960 800 640"
   width="20"
   fill="#1f1f1f"
   version="1.1"
   id="svg1"
   xmlns="http://www.w3.org/2000/svg"
   xmlns:svg="http://www.w3.org/2000/svg">
  <defs
     id="defs1" />
  <path
     d="m 0,-320 v -80 H 109 Q 58,-444 29,-506 0,-568 0,-640 0,-752 68,-837.5 136,-923 240,-950 v 84 q -70,25 -115,86.5 -45,61.5 -45,139.5 0,54 21.5,99.5 21.5,45.5 58.5,78.5 v -98 h 80 v 240 z m 440,0 q -50,0 -85,-35 -35,-35 -35,-85 0,-48 33,-82.5 33,-34.5 81,-36.5 17,-36 50.5,-58.5 33.5,-22.5 75.5,-22.5 53,0 91.5,34.5 38.5,34.5 46.5,85.5 42,0 72,29 30,29 30,70 0,42 -29,71.5 -29,29.5 -71,29.5 z m 116,-360 q -7,-41 -27,-76 -20,-35 -49,-62 v 98 h -80 v -240 h 240 v 80 H 531 q 43,38 70.5,89 27.5,51 35.5,111 z m -116,280 h 260 q 8,0 14,-6 6,-6 6,-14 0,-8 -6,-14 -6,-6 -14,-6 h -70 v -50 q 0,-29 -20.5,-49.5 Q 589,-560 560,-560 q -29,0 -49.5,20.5 Q 490,-519 490,-490 v 10 h -50 q -17,0 -28.5,11.5 -11.5,11.5 -11.5,28.5 0,17 11.5,28.5 11.5,11.5 28.5,11.5 z m 120,-80 z"
     id="path1" />
</svg>
